<svg width="24" height="24" viewBox="0 0 24 24" fill="none" xmlns="http://www.w3.org/2000/svg">
<path d="M12 2C6.47698 2 2 6.47698 2 12C2 17.523 6.47698 22 12 22C17.523 22 22 17.523 22 12C22 6.47698 17.523 2 12 2ZM12 18.5452C11.1967 18.5452 10.5456 17.8942 10.5456 17.0908C10.5456 16.2875 11.1966 15.6363 12 15.6363C12.8033 15.6363 13.4546 16.2874 13.4546 17.0908C13.4546 17.894 12.8033 18.5452 12 18.5452ZM13.5789 7.30198L13.0181 13.8909C13.0181 14.4531 12.5624 14.9088 12.0002 14.9088C11.4379 14.9088 10.9819 14.4531 10.9819 13.8909L10.4212 7.30198C10.4088 7.22138 10.4001 7.13907 10.4001 7.05443C10.4001 6.17086 11.1168 5.45475 12.0001 5.45475C12.8839 5.45475 13.6002 6.1709 13.6002 7.05443C13.6 7.13907 13.5915 7.22138 13.5789 7.30198H13.5789Z" fill="#A5A5A5"/>
</svg>
