<svg width="19" height="20" viewBox="0 0 19 20" fill="none" xmlns="http://www.w3.org/2000/svg">
<path d="M2.30766 16.1539H16.1537C16.9782 16.1539 17.7401 15.714 18.1522 15C18.5644 14.2861 18.5644 13.4063 18.1522 12.6924C17.7401 11.9784 16.9782 11.5385 16.1537 11.5385V6.92316C16.1537 4.44976 14.8342 2.16406 12.6922 0.927588C10.5502 -0.309196 7.91114 -0.309196 5.76917 0.927588C3.62721 2.1642 2.30766 4.44972 2.30766 6.92316V11.5385C1.48313 11.5385 0.721293 11.9784 0.309208 12.6924C-0.103049 13.4063 -0.103049 14.2861 0.309208 15C0.721293 15.714 1.48313 16.1539 2.30766 16.1539Z" fill="#A5A5A5"/>
<path d="M9.23069 20C10.1174 20.0002 10.9769 19.694 11.6637 19.1332C12.3505 18.5726 12.8225 17.7919 12.9999 16.9231H5.46149C5.63886 17.7919 6.11085 18.5726 6.79765 19.1332C7.48446 19.694 8.34402 20.0002 9.23069 20Z" fill="#A5A5A5"/>
</svg>
