<svg width="16" height="16" viewBox="0 0 16 16" fill="none" xmlns="http://www.w3.org/2000/svg">
<path d="M8.00008 1.33337C4.31778 1.33337 1.33325 4.31752 1.33325 8.00374C1.33325 11.686 4.3174 14.6667 8.00008 14.6667C11.6824 14.6667 14.663 11.6862 14.663 8.00374C14.663 4.31758 11.6824 1.33337 8.00008 1.33337ZM11.6753 6.524L6.90217 11.2682L4.32833 8.75562C3.99362 8.42808 3.98999 7.89173 4.31753 7.55339C4.64507 7.21868 5.18506 7.21139 5.51976 7.54259L6.89125 8.88531L10.4803 5.31422C10.8115 4.98302 11.3479 4.98302 11.6791 5.31786C12.0138 5.65257 12.0066 6.18892 11.6754 6.52376L11.6753 6.524Z" fill="#27AE60"/>
</svg>
