<svg width="80" height="80" viewBox="0 0 80 80" fill="none" xmlns="http://www.w3.org/2000/svg">
<g filter="url(#filter0_d_327_8851)">
<circle cx="40" cy="36" r="30" fill="url(#paint0_linear_327_8851)"/>
</g>
<path d="M30.4141 26.4562C30.4141 25.6983 31.0316 25.0808 31.7895 25.0808H36.8421C37.0947 25.0808 37.2913 24.8842 37.2913 24.6316L37.2911 23.1159C37.2911 22.8633 37.0945 22.6667 36.842 22.6667H31.7894C29.7123 22.6667 28 24.379 28 26.4563V31.5089C28 31.7615 28.1966 31.9581 28.4492 31.9581H29.9648C30.2174 31.9581 30.414 31.7615 30.414 31.5089L30.4141 26.4562Z" fill="white"/>
<path d="M49.3052 22.6668H44.2526C44 22.6668 43.8035 22.8634 43.8035 23.116V24.6317C43.8035 24.8842 44.0001 25.0808 44.2526 25.0808H49.3052C50.0632 25.0808 50.6807 25.6984 50.6807 26.4563V31.5089C50.6807 31.7615 50.8773 31.9581 51.1299 31.9581H52.6456C52.8981 31.9581 53.0947 31.7615 53.0947 31.5089V26.4563C53.0947 24.3791 51.3825 22.6667 49.3052 22.6667L49.3052 22.6668Z" fill="white"/>
<path d="M50.6807 45.5438C50.6807 46.3018 50.0632 46.9193 49.3052 46.9193H44.2526C44 46.9193 43.8035 47.1159 43.8035 47.3685V48.8841C43.8035 49.1367 44.0001 49.3333 44.2526 49.3333H49.3052C51.4105 49.3333 53.0948 47.621 53.0948 45.5438V40.4912C53.0948 40.2386 52.8982 40.042 52.6456 40.042H51.1299C50.8774 40.042 50.6808 40.2386 50.6808 40.4912L50.6807 45.5438Z" fill="white"/>
<path d="M30.414 45.5438V40.4912C30.414 40.2386 30.2174 40.042 29.9648 40.042H28.4492C28.1966 40.042 28 40.2386 28 40.4912V45.5438C28 47.649 29.7123 49.3333 31.7896 49.3333H36.8422C37.0947 49.3333 37.2913 49.1367 37.2913 48.8841V47.3685C37.2913 47.1159 37.0947 46.9193 36.8422 46.9193H31.7896C31.0316 46.9191 30.4141 46.3016 30.4141 45.5436L30.414 45.5438Z" fill="white"/>
<path d="M36.1123 32.9965V28.9545C36.1123 28.702 35.9157 28.5054 35.6631 28.5054H34.1474C33.8948 28.5054 33.6982 28.702 33.6982 28.9545V32.9684H36.1123L36.1123 32.9965Z" fill="white"/>
<path d="M39.4246 28.5054H37.9089C37.6563 28.5054 37.4597 28.702 37.4597 28.9545V32.9684H39.8737L39.8735 28.9545C39.8735 28.7018 39.6772 28.5054 39.4246 28.5054H39.4246Z" fill="white"/>
<path d="M43.1858 28.5054H41.6701C41.4175 28.5054 41.2209 28.702 41.2209 28.9545V32.9684H43.635V28.9545C43.635 28.7018 43.4384 28.5054 43.1858 28.5054H43.1858Z" fill="white"/>
<path d="M44.9824 28.9545V32.9684H47.3964V28.9545C47.3964 28.702 47.1999 28.5054 46.9473 28.5054H45.4316C45.207 28.5054 44.9824 28.7018 44.9824 28.9545H44.9824Z" fill="white"/>
<path d="M44.9825 37.207V43.0175C44.9825 43.2701 45.1791 43.4666 45.4317 43.4666H46.9474C47.2 43.4666 47.3965 43.2701 47.3965 43.0175V37.207H51.4104C51.663 37.207 51.8596 37.0104 51.8596 36.7578V35.2421C51.8596 34.9895 51.663 34.793 51.4104 34.793L29.6562 34.7932C29.4036 34.7932 29.207 34.9898 29.207 35.2423V36.758C29.207 37.0106 29.4036 37.2072 29.6562 37.2072H33.6983V43.0177C33.6983 43.2703 33.8949 43.4668 34.1475 43.4668H35.6632C35.9158 43.4668 36.1123 43.2702 36.1123 43.0177V37.2067H37.4596V43.0172C37.4596 43.2697 37.6562 43.4663 37.9088 43.4663H39.4247C39.6773 43.4663 39.8739 43.2697 39.8739 43.0172L39.8737 37.2067H41.221V43.0172C41.221 43.2697 41.4176 43.4663 41.6701 43.4663H43.1858C43.4384 43.4663 43.635 43.2697 43.635 43.0172L43.6352 37.2067L44.9825 37.207Z" fill="white"/>
<defs>
<filter id="filter0_d_327_8851" x="0" y="0" width="80" height="80" filterUnits="userSpaceOnUse" color-interpolation-filters="sRGB">
<feFlood flood-opacity="0" result="BackgroundImageFix"/>
<feColorMatrix in="SourceAlpha" type="matrix" values="0 0 0 0 0 0 0 0 0 0 0 0 0 0 0 0 0 0 127 0" result="hardAlpha"/>
<feOffset dy="4"/>
<feGaussianBlur stdDeviation="5"/>
<feColorMatrix type="matrix" values="0 0 0 0 0.847059 0 0 0 0 0 0 0 0 0 0.141176 0 0 0 0.2 0"/>
<feBlend mode="normal" in2="BackgroundImageFix" result="effect1_dropShadow_327_8851"/>
<feBlend mode="normal" in="SourceGraphic" in2="effect1_dropShadow_327_8851" result="shape"/>
</filter>
<linearGradient id="paint0_linear_327_8851" x1="10" y1="36" x2="70" y2="36" gradientUnits="userSpaceOnUse">
<stop stop-color="#CC1432"/>
<stop offset="1" stop-color="#FE395A"/>
</linearGradient>
</defs>
</svg>
