<svg width="16" height="16" viewBox="0 0 16 16" fill="none" xmlns="http://www.w3.org/2000/svg">
<path d="M14.606 7.49988L13.356 5.41657C13.2824 5.28906 13.147 5.20991 12.9998 5.20824H10.0831V3.74992C10.0831 3.63943 10.0392 3.5334 9.96111 3.45527C9.88299 3.37715 9.77696 3.33325 9.66647 3.33325H1.85416C1.71604 3.33325 1.58352 3.38813 1.48585 3.48578C1.38818 3.58343 1.33332 3.71597 1.33332 3.85409C1.33332 3.9922 1.3882 4.12473 1.48585 4.22239C1.5835 4.32006 1.71604 4.37492 1.85416 4.37492H4.01876C4.12116 4.37092 4.2216 4.40356 4.30214 4.4669C4.38268 4.53024 4.43811 4.62027 4.45829 4.72071C4.4794 4.84292 4.44499 4.96811 4.36445 5.06233C4.28391 5.15654 4.1656 5.21002 4.04162 5.20825H1.64592C1.47331 5.20825 1.33343 5.34813 1.33343 5.52075C1.33343 5.69337 1.47331 5.83325 1.64592 5.83325H3.31258C3.41395 5.83073 3.51291 5.86403 3.59215 5.92727C3.67139 5.99052 3.72589 6.07971 3.74588 6.17903C3.76681 6.3005 3.73296 6.42494 3.65334 6.51905C3.57383 6.61308 3.45664 6.66712 3.33339 6.66656H1.64591C1.47329 6.66656 1.33341 6.80644 1.33341 6.97906C1.33341 7.15168 1.47329 7.29156 1.64591 7.29156H2.8959C2.99727 7.28904 3.09623 7.32234 3.17547 7.38558C3.25471 7.44883 3.30921 7.53802 3.3292 7.63734C3.35013 7.75881 3.31628 7.88325 3.23666 7.97736C3.15715 8.07139 3.03996 8.12543 2.91671 8.12487H1.64589C1.47327 8.12487 1.33339 8.26475 1.33339 8.43737C1.33339 8.60998 1.47327 8.74986 1.64589 8.74986H2.18551C2.28679 8.74735 2.38584 8.78065 2.46508 8.84389C2.54431 8.90713 2.59872 8.99633 2.61881 9.09565C2.63964 9.21674 2.60607 9.34091 2.52692 9.43484C2.44778 9.52887 2.33124 9.58309 2.20838 9.58318H1.75005C1.63956 9.58318 1.53353 9.62708 1.45541 9.70521C1.37728 9.78333 1.33338 9.88936 1.33338 9.99985V11.0415C1.33338 11.152 1.37728 11.258 1.45541 11.3361C1.53353 11.4143 1.63956 11.4582 1.75005 11.4582H2.85216C2.97232 11.8625 3.26175 12.1951 3.64567 12.37C4.0296 12.5448 4.47045 12.5448 4.85438 12.37C5.2383 12.1951 5.52773 11.8626 5.6479 11.4582H10.5605C10.6806 11.8625 10.9701 12.1951 11.354 12.37C11.7379 12.5448 12.1788 12.5448 12.5627 12.37C12.9466 12.1951 13.236 11.8626 13.3562 11.4582H14.25C14.3605 11.4582 14.4665 11.4143 14.5446 11.3361C14.6228 11.258 14.6667 11.152 14.6667 11.0415V7.7082C14.6653 7.63463 14.6444 7.56274 14.6062 7.49987L14.606 7.49988ZM4.24987 11.6665C4.08414 11.6665 3.92509 11.6007 3.80793 11.4835C3.69076 11.3663 3.62489 11.2072 3.62489 11.0415C3.62489 10.8758 3.69074 10.7168 3.80793 10.5996C3.92511 10.4824 4.08416 10.4166 4.24987 10.4166C4.41559 10.4166 4.57466 10.4824 4.69182 10.5996C4.80899 10.7168 4.87486 10.8758 4.87486 11.0415C4.87486 11.2072 4.80901 11.3663 4.69182 11.4835C4.57464 11.6006 4.41559 11.6665 4.24987 11.6665ZM11.9581 11.6665C11.7924 11.6665 11.6334 11.6007 11.5162 11.4835C11.399 11.3663 11.3332 11.2072 11.3332 11.0415C11.3332 10.8758 11.399 10.7168 11.5162 10.5996C11.6334 10.4824 11.7924 10.4166 11.9581 10.4166C12.1239 10.4166 12.2829 10.4824 12.4001 10.5996C12.5173 10.7168 12.5831 10.8758 12.5831 11.0415C12.5831 11.2072 12.5173 11.3663 12.4001 11.4835C12.2829 11.6006 12.1239 11.6665 11.9581 11.6665ZM10.0832 7.70822V6.04156H12.7643L13.7643 7.70822H10.0832Z" fill="white"/>
</svg>
