<svg width="100" height="69" viewBox="0 0 100 69" fill="none" xmlns="http://www.w3.org/2000/svg">
<path d="M86.8792 58.6909C86.8792 62.3118 84.5086 64.8124 80.7878 65.2123C73.5058 66.0125 66.2143 66.8428 58.9241 67.643C56.2534 67.943 53.563 68.183 50.9222 68.4432H49.7822V68.513C48.3317 68.393 46.9516 68.3232 45.5717 68.1628C40.4604 67.6025 35.3498 67.0123 30.2384 66.4325C26.2379 65.9825 22.2365 65.552 18.296 65.0622H18.2953C16.8643 64.8299 15.5604 64.1008 14.6136 63.0041C13.6661 61.9066 13.1352 60.5105 13.1143 59.0614V46.1185V31.4753H13.9738H31.2279C33.0181 31.5291 34.7861 31.0672 36.3218 30.1448C37.8575 29.2232 39.0958 27.8793 39.8899 26.274C43.0708 20.3827 46.1614 14.4418 49.2921 8.51001C49.4024 8.3 49.5321 8.08999 49.7421 7.72998V7.84022L50.1719 8.56023C53.3528 14.4913 56.4931 20.4426 59.7143 26.3437V26.3444C60.5362 27.9526 61.7976 29.2943 63.352 30.2131C64.9072 31.1326 66.6912 31.591 68.4962 31.5352H85.9498H86.87V32.4555C86.8833 41.2038 86.8867 49.9494 86.8805 58.6914L86.8792 58.6909Z" fill="url(#paint0_linear_438_12359)"/>
<path d="M83.6975 27.7938H69.6941C68.6259 27.8266 67.5724 27.5419 66.6662 26.9761C65.7599 26.4095 65.0419 25.5877 64.603 24.6131C60.8955 17.2783 57.1948 9.97332 53.5006 2.69765L53.4106 2.51765C53.0283 1.96437 52.9823 1.24505 53.2906 0.647065C53.7114 0.104252 54.4216 -0.125976 55.0808 0.0672799L69.0835 1.85749L83.4268 3.71753L83.4275 3.71823C85.621 3.93661 87.5794 5.18827 88.6986 7.08877C92.3092 13.01 95.8799 18.9615 99.4613 24.9022H99.4606C99.6036 25.1318 99.7278 25.3725 99.831 25.6223C100.057 26.0527 100.053 26.5676 99.8199 26.9939C99.5861 27.4202 99.155 27.7014 98.6708 27.7432C98.3394 27.7907 98.0045 27.8074 97.6703 27.7928L83.6975 27.7938Z" fill="url(#paint1_linear_438_12359)"/>
<path d="M16.2737 27.794H2.61073H2.01071C1.28511 27.9134 0.556723 27.5966 0.149957 26.984C-0.134711 26.3107 -0.0105135 25.5342 0.470204 24.9838C4.0808 18.9821 7.6621 12.9814 11.3124 7.06027C12.4161 5.20309 14.3341 3.97854 16.4836 3.75956C21.6515 3.09256 26.8255 2.42628 32.0066 1.75931C36.2974 1.20953 40.5986 0.64929 44.8994 0.109263V0.108566C45.2936 0.0736813 45.6913 0.114146 46.0701 0.228569C46.6618 0.411358 46.9987 1.03301 46.8299 1.62883C46.7469 2.0014 46.6157 2.36072 46.4399 2.6991C42.7093 10.0612 38.9781 17.4526 35.2273 24.8235C34.8101 25.7298 34.1396 26.4952 33.2962 27.0275C32.4534 27.5599 31.4738 27.8369 30.4768 27.8243C25.736 27.8243 20.975 27.7943 16.2738 27.7943L16.2737 27.794Z" fill="url(#paint2_linear_438_12359)"/>
<defs>
<linearGradient id="paint0_linear_438_12359" x1="13.1143" y1="38.1215" x2="86.8835" y2="38.1215" gradientUnits="userSpaceOnUse">
<stop stop-color="#CC1432"/>
<stop offset="1" stop-color="#FE395A"/>
</linearGradient>
<linearGradient id="paint1_linear_438_12359" x1="53.0879" y1="13.8988" x2="99.9977" y2="13.8988" gradientUnits="userSpaceOnUse">
<stop stop-color="#CC1432"/>
<stop offset="1" stop-color="#FE395A"/>
</linearGradient>
<linearGradient id="paint2_linear_438_12359" x1="-0.000976562" y1="13.9606" x2="46.8734" y2="13.9606" gradientUnits="userSpaceOnUse">
<stop stop-color="#CC1432"/>
<stop offset="1" stop-color="#FE395A"/>
</linearGradient>
</defs>
</svg>
