<svg width="20" height="20" viewBox="0 0 20 20" fill="none" xmlns="http://www.w3.org/2000/svg">
<path d="M10 0C4.4774 0 0 4.4773 0 10C0 15.5227 4.4773 20 10 20C15.5227 20 20 15.5227 20 10C20 4.4773 15.5227 0 10 0ZM14.4131 13.7694C14.5909 13.9471 14.5909 14.2344 14.4131 14.412C14.3245 14.5007 14.2082 14.5453 14.0917 14.5453C13.9754 14.5453 13.859 14.5007 13.7703 14.4122L10.0008 10.6427L6.23075 14.4122C6.14228 14.5007 6.0258 14.5453 5.90953 14.5453C5.79325 14.5453 5.67677 14.5007 5.5881 14.4122C5.41034 14.2344 5.41034 13.9471 5.5881 13.7696L9.35776 9.99989L5.58831 6.23044C5.41055 6.05268 5.41055 5.76534 5.58831 5.58779C5.76607 5.41003 6.0534 5.41003 6.23096 5.58779L10.001 9.35724L13.7705 5.58779C13.9482 5.41003 14.2356 5.41003 14.4131 5.58779C14.5909 5.76555 14.5909 6.05288 14.4131 6.23044L10.6437 9.99989L14.4131 13.7694Z" fill="#A5A5A5"/>
</svg>
