<svg width="60" height="60" viewBox="0 0 60 60" fill="none" xmlns="http://www.w3.org/2000/svg">
<path d="M30.0001 25.8516C25.5836 25.8516 22.0021 29.432 22.0021 33.8496C22.0021 38.2672 25.5835 41.848 30.0001 41.848C34.4177 41.848 37.9985 38.2673 37.9985 33.8496C37.9985 29.4316 34.4178 25.8516 30.0001 25.8516ZM51.4401 18.5434L42.3588 15.6959L41.2071 12.0986C40.6454 10.2671 39.6749 10.0004 37.7084 10.0004L22.2916 10C20.3258 10 19.3553 10.2667 18.7929 12.0982L17.6415 15.6955L8.55978 18.5431C6.64659 19.0768 5 20.8481 5 22.8146V47.1984C5 49.165 6.59319 50.7582 8.55978 50.7582H51.4398C53.4064 50.7582 54.9996 49.165 54.9996 47.1984L55 22.8146C55 20.8488 53.3542 19.0768 51.4402 18.5437L51.4401 18.5434ZM30.0001 45.6856C23.4636 45.6856 18.1646 40.3862 18.1646 33.8491C18.1646 27.3127 23.4639 22.0136 30.0001 22.0136C36.5373 22.0136 41.8365 27.313 41.8365 33.8491C41.8365 40.3863 36.5375 45.6856 30.0001 45.6856ZM50.6726 24.5798C49.6485 24.5798 48.8183 23.7499 48.8183 22.7251C48.8183 21.7014 49.6478 20.8708 50.6726 20.8708C51.6971 20.8708 52.527 21.7007 52.527 22.7251C52.527 23.75 51.6974 24.5798 50.6726 24.5798Z" fill="#D80024"/>
</svg>
