<svg width="16" height="16" viewBox="0 0 16 16" fill="none" xmlns="http://www.w3.org/2000/svg">
<path d="M3.20701 3.22824C3.20701 2.84927 3.51578 2.5405 3.89475 2.5405H6.42105C6.54734 2.5405 6.64563 2.44221 6.64563 2.31592L6.64554 1.55808C6.64554 1.43179 6.54724 1.3335 6.42095 1.3335H3.89465C2.85611 1.3335 1.99998 2.18963 1.99998 3.22827V5.75457C1.99998 5.88086 2.09827 5.97916 2.22456 5.97916H2.9824C3.10869 5.97916 3.20698 5.88086 3.20698 5.75457L3.20701 3.22824Z" fill="white"/>
<path d="M12.6525 1.3334H10.1262C9.99995 1.3334 9.90166 1.4317 9.90166 1.55799V2.31583C9.90166 2.44212 9.99996 2.54041 10.1262 2.54041H12.6525C13.0315 2.54041 13.3403 2.84918 13.3403 3.22815V5.75445C13.3403 5.88074 13.4386 5.97903 13.5649 5.97903H14.3227C14.449 5.97903 14.5473 5.88074 14.5473 5.75445V3.22815C14.5473 2.18953 13.6912 1.33337 12.6525 1.33337L12.6525 1.3334Z" fill="white"/>
<path d="M13.3403 12.7719C13.3403 13.1509 13.0315 13.4596 12.6525 13.4596H10.1262C9.99995 13.4596 9.90166 13.5579 9.90166 13.6842V14.4421C9.90166 14.5684 9.99996 14.6667 10.1262 14.6667H12.6525C13.7052 14.6667 14.5473 13.8105 14.5473 12.7719V10.2456C14.5473 10.1193 14.449 10.021 14.3227 10.021H13.5649C13.4386 10.021 13.3403 10.1193 13.3403 10.2456L13.3403 12.7719Z" fill="white"/>
<path d="M3.20698 12.7719V10.2456C3.20698 10.1193 3.10869 10.021 2.9824 10.021H2.22456C2.09827 10.021 1.99998 10.1193 1.99998 10.2456V12.7719C1.99998 13.8245 2.85611 14.6667 3.89475 14.6667H6.42105C6.54735 14.6667 6.64564 14.5684 6.64564 14.4421V13.6842C6.64564 13.5579 6.54734 13.4596 6.42105 13.4596H3.89475C3.51578 13.4596 3.20701 13.1508 3.20701 12.7718L3.20698 12.7719Z" fill="white"/>
<path d="M6.05608 6.49823V4.47727C6.05608 4.35098 5.95778 4.25269 5.83149 4.25269H5.07365C4.94736 4.25269 4.84907 4.35098 4.84907 4.47727V6.48422H6.05608L6.05608 6.49823Z" fill="white"/>
<path d="M7.71224 4.25269H6.9544C6.82811 4.25269 6.72982 4.35098 6.72982 4.47727V6.48422H7.93683L7.93673 4.47727C7.93673 4.35088 7.83853 4.25269 7.71224 4.25269H7.71224Z" fill="white"/>
<path d="M9.5929 4.25269H8.83506C8.70876 4.25269 8.61047 4.35098 8.61047 4.47727V6.48422H9.81748V4.47727C9.81748 4.35088 9.71919 4.25269 9.5929 4.25269H9.5929Z" fill="white"/>
<path d="M10.4912 4.47727V6.48422H11.6982V4.47727C11.6982 4.35098 11.5999 4.25269 11.4736 4.25269H10.7158C10.6035 4.25269 10.4912 4.35088 10.4912 4.47727H10.4912Z" fill="white"/>
<path d="M10.4912 8.60349V11.5087C10.4912 11.635 10.5895 11.7333 10.7158 11.7333H11.4736C11.5999 11.7333 11.6982 11.635 11.6982 11.5087V8.60349H13.7052C13.8315 8.60349 13.9297 8.5052 13.9297 8.37891V7.62107C13.9297 7.49477 13.8315 7.39648 13.7052 7.39648L2.82804 7.39658C2.70174 7.39658 2.60345 7.49488 2.60345 7.62117V8.37901C2.60345 8.5053 2.70175 8.60359 2.82804 8.60359H4.8491V11.5088C4.8491 11.6351 4.9474 11.7334 5.07369 11.7334H5.83153C5.95782 11.7334 6.05611 11.6351 6.05611 11.5088V8.60334H6.72976V11.5086C6.72976 11.6349 6.82805 11.7332 6.95435 11.7332H7.71229C7.83858 11.7332 7.93687 11.6349 7.93687 11.5086L7.93677 8.60334H8.61043V11.5086C8.61043 11.6349 8.70872 11.7332 8.83501 11.7332H9.59285C9.71914 11.7332 9.81743 11.6349 9.81743 11.5086L9.81753 8.60334L10.4912 8.60349Z" fill="white"/>
</svg>
