<svg width="16" height="16" viewBox="0 0 16 16" fill="none" xmlns="http://www.w3.org/2000/svg">
<path d="M8.00001 14.6667C9.76808 14.6667 11.4637 13.9643 12.7141 12.7141C13.9643 11.4639 14.6667 9.76822 14.6667 8.00004C14.6667 6.23186 13.9643 4.53635 12.7141 3.28596C11.4639 2.03575 9.76819 1.33337 8.00001 1.33337C6.23183 1.33337 4.53632 2.03575 3.28593 3.28596C2.03572 4.53617 1.33334 6.23186 1.33334 8.00004C1.33529 9.76752 2.03836 11.462 3.2881 12.7118C4.53796 13.9615 6.23253 14.6646 7.99983 14.6665L8.00001 14.6667ZM7.4872 5.26522C7.4872 5.08196 7.58495 4.91267 7.7436 4.82109C7.90226 4.72952 8.09777 4.72952 8.25642 4.82109C8.41507 4.91267 8.51282 5.08196 8.51282 5.26522V7.78762L10.4137 9.68916V9.68905C10.5154 9.78394 10.5744 9.91604 10.5768 10.0552C10.5792 10.1943 10.525 10.3285 10.4267 10.4269C10.3283 10.5252 10.1941 10.5794 10.055 10.577C9.91583 10.5746 9.78374 10.5156 9.68885 10.4139L7.63759 8.36261C7.54121 8.26669 7.48707 8.13619 7.48718 8.00021L7.4872 5.26522Z" fill="#A5A5A5"/>
</svg>
