<svg width="32" height="32" viewBox="0 0 32 32" fill="none" xmlns="http://www.w3.org/2000/svg">
<circle cx="16" cy="16" r="16" fill="#D80024"/>
<path d="M17.1338 10.6071C17.1444 10.273 17.0193 9.94896 16.7868 9.7089C16.5543 9.46885 16.2344 9.33337 15.9002 9.33337C15.566 9.33337 15.2462 9.46885 15.0137 9.7089C14.7811 9.94896 14.656 10.273 14.6666 10.6071L14.9137 18.3133C14.9248 18.6581 15.1152 18.9722 15.4158 19.1415C15.7166 19.3109 16.0838 19.3109 16.3846 19.1415C16.6852 18.9723 16.8756 18.6581 16.8867 18.3133L17.1338 10.6071Z" fill="white"/>
<path d="M15.9011 20.7551C15.6476 20.7551 15.4045 20.8558 15.2253 21.0351C15.0461 21.2144 14.9453 21.4574 14.9453 21.7109C14.9453 21.9644 15.0461 22.2076 15.2253 22.3868C15.4046 22.5661 15.6476 22.6667 15.9011 22.6667C16.1546 22.6667 16.3978 22.5661 16.577 22.3868C16.7563 22.2075 16.8569 21.9644 16.8569 21.7109C16.8569 21.4574 16.7563 21.2143 16.577 21.0351C16.3978 20.8558 16.1546 20.7551 15.9011 20.7551Z" fill="white"/>
</svg>
