<svg width="24" height="24" viewBox="0 0 24 24" fill="none" xmlns="http://www.w3.org/2000/svg">
<path d="M2.00006 5.02328C2.00006 4.22142 2.31733 3.45253 2.88192 2.88554C3.44651 2.3186 4.21226 2 5.0108 2H11.2638C12.0623 2 12.8282 2.3186 13.3928 2.88554C13.9574 3.45249 14.2745 4.22142 14.2745 5.02328V7.62788C14.2745 8.04333 14.0538 8.4273 13.6955 8.63494C13.3372 8.84258 12.8959 8.84258 12.5375 8.63494C12.1792 8.4273 11.9586 8.04333 11.9586 7.62788V5.02328C11.9586 4.83819 11.8854 4.66072 11.7552 4.52997C11.6248 4.39906 11.4481 4.32558 11.2637 4.32558H5.01076C4.82659 4.32558 4.64986 4.39906 4.51949 4.52997C4.38928 4.66072 4.31594 4.83819 4.31594 5.02328V18.9767C4.31594 19.1618 4.38928 19.3393 4.51949 19.47C4.64985 19.6009 4.82659 19.6744 5.01076 19.6744H11.2637C11.4481 19.6744 11.6248 19.6009 11.7552 19.47C11.8854 19.3393 11.9586 19.1618 11.9586 18.9767V16.4185C11.9586 16.0032 12.1792 15.6193 12.5375 15.4116C12.8959 15.2038 13.3372 15.2038 13.6955 15.4116C14.0538 15.6193 14.2745 16.0032 14.2745 16.4185V18.9767C14.2745 19.7786 13.9574 20.5475 13.3928 21.1145C12.8282 21.6814 12.0623 22 11.2638 22H5.0108C4.21226 22 3.44656 21.6814 2.88192 21.1145C2.31734 20.5475 2.00006 19.7786 2.00006 18.9767V5.02328Z" fill="#A5A5A5"/>
<path d="M15.1106 6.24414C15.3277 6.02628 15.6222 5.90381 15.9292 5.90381C16.2363 5.90381 16.5308 6.02628 16.7479 6.24414L21.6113 11.1278C21.8583 11.346 22 11.6602 22 11.9907C22 12.321 21.8583 12.6353 21.6113 12.8533L16.7479 17.737C16.4537 18.0222 16.0316 18.1306 15.6373 18.0221C15.2429 17.9135 14.9349 17.604 14.8268 17.208C14.7185 16.812 14.8265 16.3882 15.1106 16.0928L18.0472 13.1626H8.25334C7.83961 13.1626 7.45724 12.941 7.25046 12.5812C7.04368 12.2214 7.04368 11.7782 7.25046 11.4184C7.45724 11.0586 7.83961 10.837 8.25334 10.837H18.0472L15.1106 7.88821C14.8935 7.67019 14.7715 7.37447 14.7715 7.06608C14.7715 6.7577 14.8935 6.46214 15.1106 6.24395L15.1106 6.24414Z" fill="#A5A5A5"/>
</svg>
