<svg width="16" height="16" viewBox="0 0 16 16" fill="none" xmlns="http://www.w3.org/2000/svg">
<path fill-rule="evenodd" clip-rule="evenodd" d="M9.76744 2.88376C9.76744 3.74007 9.07337 4.43414 8.21706 4.43414C7.36075 4.43414 6.66667 3.74007 6.66667 2.88376C6.66667 2.02756 7.36075 1.33337 8.21706 1.33337C9.07337 1.33337 9.76744 2.02756 9.76744 2.88376Z" fill="#A5A5A5"/>
<path fill-rule="evenodd" clip-rule="evenodd" d="M9.76744 7.84506C9.76744 8.70137 9.07337 9.39545 8.21706 9.39545C7.36075 9.39545 6.66667 8.70137 6.66667 7.84506C6.66667 6.98886 7.36075 6.29468 8.21706 6.29468C9.07337 6.29468 9.76744 6.98886 9.76744 7.84506Z" fill="#A5A5A5"/>
<path fill-rule="evenodd" clip-rule="evenodd" d="M9.76744 13.1163C9.76744 13.9725 9.07337 14.6667 8.21706 14.6667C7.36075 14.6667 6.66667 13.9725 6.66667 13.1163C6.66667 12.26 7.36075 11.5659 8.21706 11.5659C9.07337 11.5659 9.76744 12.26 9.76744 13.1163Z" fill="#A5A5A5"/>
</svg>
