<svg width="32" height="32" viewBox="0 0 32 32" fill="none" xmlns="http://www.w3.org/2000/svg">
<circle opacity="0.1" cx="16" cy="16" r="16" fill="#D80024"/>
<g clip-path="url(#clip0_740_25593)">
<path d="M21.6326 14.7755H17.4694C17.3341 14.7755 17.2245 14.6658 17.2245 14.5306V10.3673C17.2245 9.69109 16.6762 9.14282 16 9.14282C15.3237 9.14282 14.7755 9.69109 14.7755 10.3673V14.5306C14.7755 14.6658 14.6658 14.7755 14.5306 14.7755H10.3673C9.69109 14.7755 9.14282 15.3237 9.14282 16C9.14282 16.6762 9.69109 17.2245 10.3673 17.2245H14.5306C14.6658 17.2245 14.7755 17.3341 14.7755 17.4694V21.6326C14.7755 22.3088 15.3237 22.8571 16 22.8571C16.6762 22.8571 17.2245 22.3088 17.2245 21.6326V17.4694C17.2245 17.3341 17.3341 17.2245 17.4694 17.2245H21.6326C22.3088 17.2245 22.8571 16.6762 22.8571 16C22.8571 15.3237 22.3088 14.7755 21.6326 14.7755Z" fill="#D80024"/>
</g>
<defs>
<clipPath id="clip0_740_25593">
<rect width="13.7143" height="13.7143" fill="white" transform="translate(9.14282 9.14282)"/>
</clipPath>
</defs>
</svg>
