<svg width="100" height="100" viewBox="0 0 100 100" fill="none" xmlns="http://www.w3.org/2000/svg">
<circle opacity="0.05" cx="50" cy="50" r="50" fill="#27AE60"/>
<circle opacity="0.1" cx="50" cy="50" r="40" fill="#27AE60"/>
<circle cx="50" cy="50" r="30" fill="white"/>
<g clip-path="url(#clip0_20_7619)">
<path d="M49.9998 20C33.458 20 20 33.4577 20 49.9998C20 66.542 33.458 80 49.9998 80C66.5417 80 79.9997 66.542 79.9997 49.9998C79.9997 33.4577 66.542 20 49.9998 20ZM67.2263 44.9326L48.3789 63.78C47.5775 64.5814 46.5122 65.0225 45.379 65.0225C44.2458 65.0225 43.1805 64.5814 42.3791 63.78L32.7734 54.1743C31.972 53.3729 31.5306 52.3076 31.5306 51.1744C31.5306 50.0408 31.972 48.9756 32.7734 48.1742C33.5745 47.3728 34.6398 46.9314 35.7733 46.9314C36.9065 46.9314 37.9721 47.3728 38.7732 48.1745L45.3787 54.7797L61.2259 38.9325C62.0273 38.1311 63.0925 37.6901 64.2258 37.6901C65.359 37.6901 66.4243 38.1311 67.2257 38.9325C68.8804 40.5873 68.8804 43.2785 67.2263 44.9326Z" fill="#27AE60"/>
</g>
<defs>
<clipPath id="clip0_20_7619">
<rect width="60" height="60" fill="white" transform="translate(20 20)"/>
</clipPath>
</defs>
</svg>
