<svg width="16" height="16" viewBox="0 0 16 16" fill="none" xmlns="http://www.w3.org/2000/svg">
<path fill-rule="evenodd" clip-rule="evenodd" d="M5.80955 2.76183H2.47619C2.21333 2.76183 2 2.97516 2 3.23803C2 3.50089 2.21333 3.71422 2.47619 3.71422H2.9729L3.38956 13.2999C3.42283 14.0642 4.05188 14.6666 4.81664 14.6666H11.5644C12.3292 14.6666 12.9583 14.0642 12.9915 13.2999L13.4082 3.71422H13.9049C14.1678 3.71422 14.3811 3.50089 14.3811 3.23803C14.3811 2.97516 14.1678 2.76183 13.9049 2.76183H10.5715V2.28564C10.5715 1.75949 10.1453 1.33325 9.61915 1.33325H6.76199C6.23584 1.33325 5.8096 1.75949 5.8096 2.28564L5.80955 2.76183ZM6.28574 6.09519V11.3333C6.28574 11.5962 6.49907 11.8095 6.76193 11.8095C7.0248 11.8095 7.23813 11.5962 7.23813 11.3333V6.09519C7.23813 5.83232 7.0248 5.61899 6.76193 5.61899C6.49907 5.61899 6.28574 5.83232 6.28574 6.09519ZM9.1429 6.09519V11.3333C9.1429 11.5962 9.35623 11.8095 9.61909 11.8095C9.88196 11.8095 10.0953 11.5962 10.0953 11.3333V6.09519C10.0953 5.83232 9.88196 5.61899 9.61909 5.61899C9.35623 5.61899 9.1429 5.83232 9.1429 6.09519ZM9.61909 2.76183H6.76193V2.28564H9.61909V2.76183Z" fill="#A4A4A4"/>
</svg>
