<svg width="100" height="100" viewBox="0 0 100 100" fill="none" xmlns="http://www.w3.org/2000/svg">
<circle opacity="0.05" cx="50" cy="50" r="50" fill="#D80024"/>
<circle opacity="0.1" cx="50" cy="50" r="40" fill="#D80024"/>
<circle cx="50" cy="50" r="30" fill="white"/>
<path d="M50 20C33.431 20 20 33.431 20 50C20 66.569 33.431 80 50 80C66.569 80 80 66.569 80 50C80 33.431 66.569 20 50 20ZM50 69.6357C47.5902 69.6357 45.6367 67.6826 45.6367 65.2724C45.6367 62.8626 47.5898 60.909 50 60.909C52.4098 60.909 54.3638 62.8621 54.3638 65.2724C54.3638 67.6821 52.4098 69.6357 50 69.6357ZM54.7368 35.906L53.0543 55.6726C53.0543 57.3593 51.6871 58.7264 50.0005 58.7264C48.3138 58.7264 46.9457 57.3593 46.9457 55.6726L45.2637 35.906C45.2265 35.6641 45.2004 35.4172 45.2004 35.1633C45.2004 32.5126 47.3503 30.3643 50.0004 30.3643C52.6516 30.3643 54.8004 32.5127 54.8004 35.1633C54.8 35.4172 54.7744 35.6641 54.7367 35.906H54.7368Z" fill="#D80024"/>
</svg>
